solid ascii
 facet normal -0.531219 0.846206 0.0417405
  outer loop
   vertex 0.013028 -0.361501 -0.010207
   vertex -0.01258 -0.378615 0.01084
   vertex 0.010922 -0.363436 0.002219
  endloop
 endfacet
 facet normal 0.9587 0.207274 0.194761
  outer loop
   vertex 0.014869 -0.374283 -0.005666
   vertex 0.013028 -0.361501 -0.010207
   vertex 0.010922 -0.363436 0.002219
  endloop
 endfacet
 facet normal 0.988213 0.101674 -0.114448
  outer loop
   vertex 0.014869 -0.374283 -0.005666
   vertex 0.013407 -0.372391 -0.016609
   vertex 0.013028 -0.361501 -0.010207
  endloop
 endfacet
 facet normal 0.400117 0.474766 -0.783903
  outer loop
   vertex 0.013028 -0.361501 -0.010207
   vertex 0.013407 -0.372391 -0.016609
   vertex -0.000308 -0.360418 -0.016358
  endloop
 endfacet
 facet normal 0.421762 0.259875 -0.868667
  outer loop
   vertex 0.010583 -0.347739 -0.007277
   vertex 0.013028 -0.361501 -0.010207
   vertex -0.000308 -0.360418 -0.016358
  endloop
 endfacet
 facet normal 0.98446 0.175581 -0.00318706
  outer loop
   vertex 0.010621 -0.34776 0.003305
   vertex 0.013028 -0.361501 -0.010207
   vertex 0.010583 -0.347739 -0.007277
  endloop
 endfacet
 facet normal 0.985727 0.00727489 0.168197
  outer loop
   vertex 0.010621 -0.34776 0.003305
   vertex 0.010922 -0.363436 0.002219
   vertex 0.013028 -0.361501 -0.010207
  endloop
 endfacet
 facet normal -0.291725 0.0979499 0.951474
  outer loop
   vertex -0.009659 -0.36093 0.009915
   vertex -0.023961 -0.371674 0.006636
   vertex -0.01258 -0.378615 0.01084
  endloop
 endfacet
 facet normal 0.0458208 -0.959763 0.277048
  outer loop
   vertex -0.01258 -0.378615 0.01084
   vertex -0.025528 -0.38203 0.001151
   vertex -0.01155 -0.380779 0.003173
  endloop
 endfacet
 facet normal -0.502727 -0.343972 0.793063
  outer loop
   vertex -0.01258 -0.378615 0.01084
   vertex -0.023961 -0.371674 0.006636
   vertex -0.025528 -0.38203 0.001151
  endloop
 endfacet
 facet normal -0.854874 0.165457 0.491746
  outer loop
   vertex -0.01258 -0.378615 0.01084
   vertex -0.005035 -0.374491 0.022569
   vertex -0.005737 -0.36165 0.017028
  endloop
 endfacet
 facet normal -0.626096 -0.516332 0.584299
  outer loop
   vertex -0.01258 -0.378615 0.01084
   vertex -0.000653 -0.383591 0.019223
   vertex -0.005035 -0.374491 0.022569
  endloop
 endfacet
 facet normal 0.0455667 -0.82923 -0.557047
  outer loop
   vertex -0.000653 -0.383591 0.019223
   vertex -0.01258 -0.378615 0.01084
   vertex -0.006346 -0.379841 0.013175
  endloop
 endfacet
 facet normal -0.20438 -0.97837 0.0319541
  outer loop
   vertex -0.002628 -0.381091 -0.001317
   vertex -0.006346 -0.379841 0.013175
   vertex -0.01258 -0.378615 0.01084
  endloop
 endfacet
 facet normal 0.109403 -0.952684 0.283592
  outer loop
   vertex -0.002628 -0.381091 -0.001317
   vertex -0.01258 -0.378615 0.01084
   vertex -0.01155 -0.380779 0.003173
  endloop
 endfacet
 facet normal -0.856163 0.166987 0.488978
  outer loop
   vertex -0.005737 -0.36165 0.017028
   vertex -0.009659 -0.36093 0.009915
   vertex -0.01258 -0.378615 0.01084
  endloop
 endfacet
 facet normal 0.881997 -0.0212786 0.470774
  outer loop
   vertex 0.014869 -0.374283 -0.005666
   vertex 0.010922 -0.363436 0.002219
   vertex 0.010069 -0.377819 0.003167
  endloop
 endfacet
 facet normal -0.846537 0.0848429 0.525525
  outer loop
   vertex 0.010922 -0.363436 0.002219
   vertex -0.000308 -0.360418 -0.016358
   vertex 0.010069 -0.377819 0.003167
  endloop
 endfacet
 facet normal 0.846537 -0.0848429 -0.525525
  outer loop
   vertex 0.010069 -0.377819 0.003167
   vertex -0.000308 -0.360418 -0.016358
   vertex 0.010922 -0.363436 0.002219
  endloop
 endfacet
 facet normal -0.51809 -0.0256243 -0.854942
  outer loop
   vertex 0.010922 -0.363436 0.002219
   vertex 0.010069 -0.377819 0.003167
   vertex -0.006346 -0.379841 0.013175
  endloop
 endfacet
 facet normal 0.814897 -0.0101317 0.579518
  outer loop
   vertex 0.010922 -0.363436 0.002219
   vertex 0.003682 -0.36147 0.012434
   vertex 0.010069 -0.377819 0.003167
  endloop
 endfacet
 facet normal 0.813368 -0.0246485 0.581228
  outer loop
   vertex 0.010621 -0.34776 0.003305
   vertex 0.003682 -0.36147 0.012434
   vertex 0.010922 -0.363436 0.002219
  endloop
 endfacet
 facet normal 0.607298 -0.670073 0.42684
  outer loop
   vertex 0.014869 -0.374283 -0.005666
   vertex 0.006594 -0.382844 -0.007332
   vertex 0.010415 -0.383661 -0.014051
  endloop
 endfacet
 facet normal 0.940844 -0.289676 -0.175782
  outer loop
   vertex 0.014869 -0.374283 -0.005666
   vertex 0.010415 -0.383661 -0.014051
   vertex 0.013407 -0.372391 -0.016609
  endloop
 endfacet
 facet normal 0.705209 -0.70157 0.102371
  outer loop
   vertex 0.014869 -0.374283 -0.005666
   vertex 0.010069 -0.377819 0.003167
   vertex 0.006594 -0.382844 -0.007332
  endloop
 endfacet
 facet normal 0.392232 -0.525985 0.754649
  outer loop
   vertex 0.014869 -0.374283 -0.005666
   vertex -0.002628 -0.381091 -0.001317
   vertex 0.006594 -0.382844 -0.007332
  endloop
 endfacet
 facet normal 0.948144 -0.194693 0.251231
  outer loop
   vertex 0.013407 -0.372391 -0.016609
   vertex 0.010415 -0.383661 -0.014051
   vertex 0.013275 -0.381353 -0.023056
  endloop
 endfacet
 facet normal 0.488345 0.504849 -0.711791
  outer loop
   vertex 0.013407 -0.372391 -0.016609
   vertex 0.013275 -0.381353 -0.023056
   vertex 0.004017 -0.371453 -0.022386
  endloop
 endfacet
 facet normal 0.474587 0.557909 -0.680812
  outer loop
   vertex 0.013407 -0.372391 -0.016609
   vertex 0.004017 -0.371453 -0.022386
   vertex -0.000308 -0.360418 -0.016358
  endloop
 endfacet
 facet normal -0.105129 0.444692 -0.889492
  outer loop
   vertex -0.000308 -0.360418 -0.016358
   vertex 0.004017 -0.371453 -0.022386
   vertex -0.007979 -0.358241 -0.014363
  endloop
 endfacet
 facet normal -0.156232 0.309156 -0.938091
  outer loop
   vertex 0.000122 -0.346804 -0.011943
   vertex -0.000308 -0.360418 -0.016358
   vertex -0.007979 -0.358241 -0.014363
  endloop
 endfacet
 facet normal 0.412281 0.269236 -0.870366
  outer loop
   vertex 0.010583 -0.347739 -0.007277
   vertex -0.000308 -0.360418 -0.016358
   vertex 0.000122 -0.346804 -0.011943
  endloop
 endfacet
 facet normal 0.413859 0.147165 -0.898367
  outer loop
   vertex 0.009738 -0.310616 -0.001585
   vertex 0.010583 -0.347739 -0.007277
   vertex 0.000122 -0.346804 -0.011943
  endloop
 endfacet
 facet normal 0.858066 0.0968582 -0.504322
  outer loop
   vertex 0.012552 -0.311245 0.003082
   vertex 0.010583 -0.347739 -0.007277
   vertex 0.009738 -0.310616 -0.001585
  endloop
 endfacet
 facet normal 0.998597 -0.0528307 -0.00369069
  outer loop
   vertex 0.012552 -0.311245 0.003082
   vertex 0.010621 -0.34776 0.003305
   vertex 0.010583 -0.347739 -0.007277
  endloop
 endfacet
 facet normal 0.734671 0.0769839 0.674042
  outer loop
   vertex 0.002598 -0.348052 0.012083
   vertex 0.003682 -0.36147 0.012434
   vertex 0.010621 -0.34776 0.003305
  endloop
 endfacet
 facet normal 0.738266 -0.0349275 0.673605
  outer loop
   vertex 0.012552 -0.311245 0.003082
   vertex 0.002598 -0.348052 0.012083
   vertex 0.010621 -0.34776 0.003305
  endloop
 endfacet
 facet normal -0.599749 0.660507 0.451698
  outer loop
   vertex -0.023961 -0.371674 0.006636
   vertex -0.009659 -0.36093 0.009915
   vertex -0.013929 -0.359259 0.001802
  endloop
 endfacet
 facet normal 0.599749 -0.660507 -0.451698
  outer loop
   vertex -0.023961 -0.371674 0.006636
   vertex -0.013929 -0.359259 0.001802
   vertex -0.009659 -0.36093 0.009915
  endloop
 endfacet
 facet normal -0.861408 0.151919 0.484662
  outer loop
   vertex -0.009217 -0.346808 0.006274
   vertex -0.013929 -0.359259 0.001802
   vertex -0.009659 -0.36093 0.009915
  endloop
 endfacet
 facet normal -0.853386 0.18096 0.488861
  outer loop
   vertex -0.009659 -0.36093 0.009915
   vertex -0.005737 -0.36165 0.017028
   vertex -0.004934 -0.347149 0.013062
  endloop
 endfacet
 facet normal -0.830656 0.163243 0.532317
  outer loop
   vertex -0.009217 -0.346808 0.006274
   vertex -0.009659 -0.36093 0.009915
   vertex -0.004934 -0.347149 0.013062
  endloop
 endfacet
 facet normal -0.796022 0.589064 -0.139111
  outer loop
   vertex -0.025944 -0.375295 0.00265
   vertex -0.023961 -0.371674 0.006636
   vertex -0.013929 -0.359259 0.001802
  endloop
 endfacet
 facet normal -0.808916 -0.174894 0.561308
  outer loop
   vertex -0.023961 -0.371674 0.006636
   vertex -0.025944 -0.375295 0.00265
   vertex -0.025528 -0.38203 0.001151
  endloop
 endfacet
 facet normal 0.808916 0.174894 -0.561308
  outer loop
   vertex -0.025944 -0.375295 0.00265
   vertex -0.023961 -0.371674 0.006636
   vertex -0.025528 -0.38203 0.001151
  endloop
 endfacet
 facet normal -0.884795 0.0484987 -0.463451
  outer loop
   vertex -0.019548 -0.382377 -0.010302
   vertex -0.025528 -0.38203 0.001151
   vertex -0.025944 -0.375295 0.00265
  endloop
 endfacet
 facet normal -0.87699 -0.160088 -0.453056
  outer loop
   vertex -0.025528 -0.38203 0.001151
   vertex -0.019548 -0.382377 -0.010302
   vertex -0.022728 -0.38338 -0.003792
  endloop
 endfacet
 facet normal 0.0442222 -0.957078 0.286438
  outer loop
   vertex -0.025528 -0.38203 0.001151
   vertex -0.022728 -0.38338 -0.003792
   vertex -0.01155 -0.380779 0.003173
  endloop
 endfacet
 facet normal -0.0442222 0.957078 -0.286438
  outer loop
   vertex -0.022728 -0.38338 -0.003792
   vertex -0.025528 -0.38203 0.001151
   vertex -0.01155 -0.380779 0.003173
  endloop
 endfacet
 facet normal 0.120421 -0.977733 0.171861
  outer loop
   vertex -0.022728 -0.38338 -0.003792
   vertex -0.010412 -0.382237 -0.005919
   vertex -0.01155 -0.380779 0.003173
  endloop
 endfacet
 facet normal 0.0480872 -0.985284 0.164019
  outer loop
   vertex -0.002628 -0.381091 -0.001317
   vertex -0.01155 -0.380779 0.003173
   vertex -0.010412 -0.382237 -0.005919
  endloop
 endfacet
 facet normal 0.532313 0.359764 0.766298
  outer loop
   vertex -0.005737 -0.36165 0.017028
   vertex -0.005035 -0.374491 0.022569
   vertex 0.00408 -0.377988 0.017879
  endloop
 endfacet
 facet normal 0.412805 -0.132554 0.901122
  outer loop
   vertex -0.000653 -0.383591 0.019223
   vertex 0.00408 -0.377988 0.017879
   vertex -0.005035 -0.374491 0.022569
  endloop
 endfacet
 facet normal 0.414471 0.293905 0.861297
  outer loop
   vertex 0.003682 -0.36147 0.012434
   vertex -0.005737 -0.36165 0.017028
   vertex 0.00408 -0.377988 0.017879
  endloop
 endfacet
 facet normal 0.43671 0.0587628 0.897681
  outer loop
   vertex 0.002598 -0.348052 0.012083
   vertex -0.005737 -0.36165 0.017028
   vertex 0.003682 -0.36147 0.012434
  endloop
 endfacet
 facet normal 0.154441 0.252679 0.955145
  outer loop
   vertex -0.004934 -0.347149 0.013062
   vertex -0.005737 -0.36165 0.017028
   vertex 0.002598 -0.348052 0.012083
  endloop
 endfacet
 facet normal 0.762493 -0.571217 0.303835
  outer loop
   vertex 0.010069 -0.377819 0.003167
   vertex 0.00408 -0.377988 0.017879
   vertex -0.000653 -0.383591 0.019223
  endloop
 endfacet
 facet normal -0.368183 -0.926529 -0.0773689
  outer loop
   vertex -0.002628 -0.381091 -0.001317
   vertex 0.005021 -0.384506 0.003179
   vertex -0.000653 -0.383591 0.019223
  endloop
 endfacet
 facet normal 0.762693 -0.571746 0.302335
  outer loop
   vertex 0.00408 -0.377988 0.017879
   vertex -0.000653 -0.383591 0.019223
   vertex 0.005021 -0.384506 0.003179
  endloop
 endfacet
 facet normal -0.507118 -0.860061 -0.0559198
  outer loop
   vertex -0.000653 -0.383591 0.019223
   vertex -0.006346 -0.379841 0.013175
   vertex -0.002628 -0.381091 -0.001317
  endloop
 endfacet
 facet normal 0.157569 -0.987292 -0.0206635
  outer loop
   vertex -0.002628 -0.381091 -0.001317
   vertex -0.010412 -0.382237 -0.005919
   vertex 0.000813 -0.380338 -0.011055
  endloop
 endfacet
 facet normal -0.309884 -0.933258 -0.181664
  outer loop
   vertex -0.002628 -0.381091 -0.001317
   vertex 0.000813 -0.380338 -0.011055
   vertex 0.005021 -0.384506 0.003179
  endloop
 endfacet
 facet normal 0.797907 -0.602296 0.0241747
  outer loop
   vertex 0.006594 -0.382844 -0.007332
   vertex 0.010069 -0.377819 0.003167
   vertex 0.005021 -0.384506 0.003179
  endloop
 endfacet
 facet normal 0.915756 0.145502 0.37446
  outer loop
   vertex 0.003682 -0.36147 0.012434
   vertex 0.00408 -0.377988 0.017879
   vertex 0.010069 -0.377819 0.003167
  endloop
 endfacet
 facet normal 0.760829 -0.573805 0.303128
  outer loop
   vertex 0.005021 -0.384506 0.003179
   vertex 0.010069 -0.377819 0.003167
   vertex 0.00408 -0.377988 0.017879
  endloop
 endfacet
 facet normal -0.349518 -0.933038 -0.0853125
  outer loop
   vertex 0.006594 -0.382844 -0.007332
   vertex 0.000813 -0.380338 -0.011055
   vertex 0.010415 -0.383661 -0.014051
  endloop
 endfacet
 facet normal -0.28421 -0.939526 -0.191089
  outer loop
   vertex 0.000813 -0.380338 -0.011055
   vertex 0.006594 -0.382844 -0.007332
   vertex 0.005021 -0.384506 0.003179
  endloop
 endfacet
 facet normal 0.951103 -0.168449 0.258897
  outer loop
   vertex 0.009499 -0.391664 -0.015893
   vertex 0.013275 -0.381353 -0.023056
   vertex 0.010415 -0.383661 -0.014051
  endloop
 endfacet
 facet normal 0.211637 -0.242159 0.946873
  outer loop
   vertex 0.010415 -0.383661 -0.014051
   vertex 0.000813 -0.380338 -0.011055
   vertex 0.009499 -0.391664 -0.015893
  endloop
 endfacet
 facet normal 0.916369 -0.392008 -0.0812215
  outer loop
   vertex 0.009499 -0.391664 -0.015893
   vertex 0.010066 -0.388819 -0.023227
   vertex 0.013275 -0.381353 -0.023056
  endloop
 endfacet
 facet normal 0.326806 -0.118992 -0.937571
  outer loop
   vertex 0.013275 -0.381353 -0.023056
   vertex 0.010066 -0.388819 -0.023227
   vertex 0.004218 -0.38062 -0.026306
  endloop
 endfacet
 facet normal 0.339771 0.376078 -0.862045
  outer loop
   vertex 0.013275 -0.381353 -0.023056
   vertex 0.004218 -0.38062 -0.026306
   vertex 0.004017 -0.371453 -0.022386
  endloop
 endfacet
 facet normal 0.125307 0.392403 -0.911218
  outer loop
   vertex 0.004017 -0.371453 -0.022386
   vertex 0.004218 -0.38062 -0.026306
   vertex -0.006341 -0.368215 -0.022416
  endloop
 endfacet
 facet normal 0.200716 0.635159 -0.745846
  outer loop
   vertex 0.004017 -0.371453 -0.022386
   vertex -0.006341 -0.368215 -0.022416
   vertex -0.007979 -0.358241 -0.014363
  endloop
 endfacet
 facet normal -0.708551 0.369189 -0.601378
  outer loop
   vertex -0.015627 -0.370062 -0.012609
   vertex -0.007979 -0.358241 -0.014363
   vertex -0.006341 -0.368215 -0.022416
  endloop
 endfacet
 facet normal -0.78618 0.445019 -0.428813
  outer loop
   vertex -0.007979 -0.358241 -0.014363
   vertex -0.015627 -0.370062 -0.012609
   vertex -0.012851 -0.358486 -0.005685
  endloop
 endfacet
 facet normal 0.78618 -0.445019 0.428813
  outer loop
   vertex -0.012851 -0.358486 -0.005685
   vertex -0.015627 -0.370062 -0.012609
   vertex -0.007979 -0.358241 -0.014363
  endloop
 endfacet
 facet normal -0.0695853 0.253444 -0.964844
  outer loop
   vertex 0.000122 -0.346804 -0.011943
   vertex -0.007979 -0.358241 -0.014363
   vertex -0.007396 -0.34682 -0.011405
  endloop
 endfacet
 facet normal -0.861597 0.168034 -0.478973
  outer loop
   vertex -0.007396 -0.34682 -0.011405
   vertex -0.007979 -0.358241 -0.014363
   vertex -0.012851 -0.358486 -0.005685
  endloop
 endfacet
 facet normal -0.0707922 0.160651 -0.984469
  outer loop
   vertex 0.002155 -0.309802 -0.006051
   vertex 0.000122 -0.346804 -0.011943
   vertex -0.007396 -0.34682 -0.011405
  endloop
 endfacet
 facet normal 0.513077 0.107414 -0.851595
  outer loop
   vertex 0.009738 -0.310616 -0.001585
   vertex 0.000122 -0.346804 -0.011943
   vertex 0.002155 -0.309802 -0.006051
  endloop
 endfacet
 facet normal 0.510478 0.0438246 -0.858773
  outer loop
   vertex 0.009738 -0.310616 -0.001585
   vertex 0.002155 -0.309802 -0.006051
   vertex 0.00547 -0.271875 -0.002145
  endloop
 endfacet
 facet normal 0.63822 0.0592159 -0.767573
  outer loop
   vertex 0.012186 -0.272811 0.003367
   vertex 0.009738 -0.310616 -0.001585
   vertex 0.00547 -0.271875 -0.002145
  endloop
 endfacet
 facet normal 0.857026 0.0119812 -0.515135
  outer loop
   vertex 0.012552 -0.311245 0.003082
   vertex 0.009738 -0.310616 -0.001585
   vertex 0.012186 -0.272811 0.003367
  endloop
 endfacet
 facet normal 0.830761 -0.0903528 0.549248
  outer loop
   vertex 0.006367 -0.309975 0.012646
   vertex 0.002598 -0.348052 0.012083
   vertex 0.012552 -0.311245 0.003082
  endloop
 endfacet
 facet normal 0.801929 0.0120658 -0.597298
  outer loop
   vertex 0.016911 -0.273492 0.009697
   vertex 0.012552 -0.311245 0.003082
   vertex 0.012186 -0.272811 0.003367
  endloop
 endfacet
 facet normal 0.81264 -0.190339 0.550806
  outer loop
   vertex 0.006367 -0.309975 0.012646
   vertex 0.012552 -0.311245 0.003082
   vertex 0.016911 -0.273492 0.009697
  endloop
 endfacet
 facet normal 0.125652 -0.0271006 0.991704
  outer loop
   vertex 0.006367 -0.309975 0.012646
   vertex -0.004934 -0.347149 0.013062
   vertex 0.002598 -0.348052 0.012083
  endloop
 endfacet
 facet normal -0.794309 0.586825 -0.157195
  outer loop
   vertex -0.020772 -0.370421 -0.005289
   vertex -0.025944 -0.375295 0.00265
   vertex -0.013929 -0.359259 0.001802
  endloop
 endfacet
 facet normal -0.832503 0.550423 -0.0630365
  outer loop
   vertex -0.013929 -0.359259 0.001802
   vertex -0.012851 -0.358486 -0.005685
   vertex -0.020772 -0.370421 -0.005289
  endloop
 endfacet
 facet normal 0.832503 -0.550423 0.0630365
  outer loop
   vertex -0.013929 -0.359259 0.001802
   vertex -0.020772 -0.370421 -0.005289
   vertex -0.012851 -0.358486 -0.005685
  endloop
 endfacet
 facet normal -0.934997 0.272175 0.227381
  outer loop
   vertex -0.010907 -0.346302 -0.001281
   vertex -0.013929 -0.359259 0.001802
   vertex -0.009217 -0.346808 0.006274
  endloop
 endfacet
 facet normal -0.972792 0.198435 -0.119578
  outer loop
   vertex -0.010907 -0.346302 -0.001281
   vertex -0.012851 -0.358486 -0.005685
   vertex -0.013929 -0.359259 0.001802
  endloop
 endfacet
 facet normal -0.845223 0.0167933 0.534151
  outer loop
   vertex -0.004671 -0.310279 0.012319
   vertex -0.009217 -0.346808 0.006274
   vertex -0.004934 -0.347149 0.013062
  endloop
 endfacet
 facet normal -0.970117 0.0829998 0.227999
  outer loop
   vertex -0.006749 -0.310454 0.003541
   vertex -0.009217 -0.346808 0.006274
   vertex -0.004671 -0.310279 0.012319
  endloop
 endfacet
 facet normal -0.971346 0.0826939 0.222821
  outer loop
   vertex -0.006749 -0.310454 0.003541
   vertex -0.010907 -0.346302 -0.001281
   vertex -0.009217 -0.346808 0.006274
  endloop
 endfacet
 facet normal -0.0301659 0.0203537 0.999338
  outer loop
   vertex -0.004671 -0.310279 0.012319
   vertex -0.004934 -0.347149 0.013062
   vertex 0.006367 -0.309975 0.012646
  endloop
 endfacet
 facet normal -0.863492 0.117276 -0.490538
  outer loop
   vertex -0.025944 -0.375295 0.00265
   vertex -0.020772 -0.370421 -0.005289
   vertex -0.019548 -0.382377 -0.010302
  endloop
 endfacet
 facet normal 0.863492 -0.117276 0.490538
  outer loop
   vertex -0.019548 -0.382377 -0.010302
   vertex -0.020772 -0.370421 -0.005289
   vertex -0.025944 -0.375295 0.00265
  endloop
 endfacet
 facet normal -0.812007 0.153025 -0.56323
  outer loop
   vertex -0.015627 -0.370062 -0.012609
   vertex -0.019548 -0.382377 -0.010302
   vertex -0.020772 -0.370421 -0.005289
  endloop
 endfacet
 facet normal 0.064974 -0.992481 -0.103729
  outer loop
   vertex -0.014418 -0.381415 -0.016293
   vertex -0.010412 -0.382237 -0.005919
   vertex -0.019548 -0.382377 -0.010302
  endloop
 endfacet
 facet normal -0.76346 0.124354 -0.633771
  outer loop
   vertex -0.015627 -0.370062 -0.012609
   vertex -0.014418 -0.381415 -0.016293
   vertex -0.019548 -0.382377 -0.010302
  endloop
 endfacet
 facet normal 0.0716089 -0.990473 -0.117623
  outer loop
   vertex -0.022728 -0.38338 -0.003792
   vertex -0.019548 -0.382377 -0.010302
   vertex -0.010412 -0.382237 -0.005919
  endloop
 endfacet
 facet normal 0.11142 -0.986358 -0.121179
  outer loop
   vertex -0.014418 -0.381415 -0.016293
   vertex 0.000813 -0.380338 -0.011055
   vertex -0.010412 -0.382237 -0.005919
  endloop
 endfacet
 facet normal -0.239688 -0.538652 0.807715
  outer loop
   vertex 0.000813 -0.380338 -0.011055
   vertex -0.014418 -0.381415 -0.016293
   vertex -0.003142 -0.389712 -0.01848
  endloop
 endfacet
 facet normal -0.247904 -0.535094 0.8076
  outer loop
   vertex -0.003142 -0.389712 -0.01848
   vertex 0.009499 -0.391664 -0.015893
   vertex 0.000813 -0.380338 -0.011055
  endloop
 endfacet
 facet normal -0.23127 -0.252485 0.939556
  outer loop
   vertex 0.009499 -0.391664 -0.015893
   vertex -0.003142 -0.389712 -0.01848
   vertex 0.002113 -0.393971 -0.018331
  endloop
 endfacet
 facet normal 0.375164 -0.873625 -0.30989
  outer loop
   vertex 0.002113 -0.393971 -0.018331
   vertex 0.010066 -0.388819 -0.023227
   vertex 0.009499 -0.391664 -0.015893
  endloop
 endfacet
 facet normal 0.391801 -0.875014 -0.284328
  outer loop
   vertex 0.002113 -0.393971 -0.018331
   vertex 0.00651 -0.389673 -0.025499
   vertex 0.010066 -0.388819 -0.023227
  endloop
 endfacet
 facet normal 0.52757 0.0580177 -0.847528
  outer loop
   vertex 0.010066 -0.388819 -0.023227
   vertex 0.00651 -0.389673 -0.025499
   vertex 0.004218 -0.38062 -0.026306
  endloop
 endfacet
 facet normal 0.0211117 -0.0834659 -0.996287
  outer loop
   vertex 0.004218 -0.38062 -0.026306
   vertex 0.00651 -0.389673 -0.025499
   vertex -0.004577 -0.378822 -0.026643
  endloop
 endfacet
 facet normal 0.113623 0.384049 -0.916295
  outer loop
   vertex 0.004218 -0.38062 -0.026306
   vertex -0.004577 -0.378822 -0.026643
   vertex -0.006341 -0.368215 -0.022416
  endloop
 endfacet
 facet normal -0.731966 0.143686 -0.666019
  outer loop
   vertex -0.006341 -0.368215 -0.022416
   vertex -0.004577 -0.378822 -0.026643
   vertex -0.015627 -0.370062 -0.012609
  endloop
 endfacet
 facet normal -0.732804 0.470022 -0.492014
  outer loop
   vertex -0.012851 -0.358486 -0.005685
   vertex -0.015627 -0.370062 -0.012609
   vertex -0.020772 -0.370421 -0.005289
  endloop
 endfacet
 facet normal 0.732804 -0.470022 0.492014
  outer loop
   vertex -0.020772 -0.370421 -0.005289
   vertex -0.015627 -0.370062 -0.012609
   vertex -0.012851 -0.358486 -0.005685
  endloop
 endfacet
 facet normal -0.734789 0.137299 -0.664255
  outer loop
   vertex -0.015627 -0.370062 -0.012609
   vertex -0.004577 -0.378822 -0.026643
   vertex -0.014418 -0.381415 -0.016293
  endloop
 endfacet
 facet normal -0.907199 0.263338 -0.32809
  outer loop
   vertex -0.007396 -0.34682 -0.011405
   vertex -0.012851 -0.358486 -0.005685
   vertex -0.010907 -0.346302 -0.001281
  endloop
 endfacet
 facet normal -0.939326 0.0919753 -0.330464
  outer loop
   vertex -0.005797 -0.309708 -0.005621
   vertex -0.007396 -0.34682 -0.011405
   vertex -0.010907 -0.346302 -0.001281
  endloop
 endfacet
 facet normal -0.0514967 0.155955 -0.986421
  outer loop
   vertex 0.002155 -0.309802 -0.006051
   vertex -0.007396 -0.34682 -0.011405
   vertex -0.005797 -0.309708 -0.005621
  endloop
 endfacet
 facet normal -0.0530709 0.0678817 -0.996281
  outer loop
   vertex 0.002155 -0.309802 -0.006051
   vertex -0.005797 -0.309708 -0.005621
   vertex -0.002709 -0.272642 -0.00326
  endloop
 endfacet
 facet normal 0.126163 0.0907092 -0.987854
  outer loop
   vertex 0.00547 -0.271875 -0.002145
   vertex 0.002155 -0.309802 -0.006051
   vertex -0.002709 -0.272642 -0.00326
  endloop
 endfacet
 facet normal 0.136952 -0.0207012 -0.990361
  outer loop
   vertex 0.00547 -0.271875 -0.002145
   vertex -0.002709 -0.272642 -0.00326
   vertex 0.001871 -0.234927 -0.003415
  endloop
 endfacet
 facet normal 0.37961 0.00517756 -0.925132
  outer loop
   vertex 0.00928 -0.23531 -0.000377
   vertex 0.00547 -0.271875 -0.002145
   vertex 0.001871 -0.234927 -0.003415
  endloop
 endfacet
 facet normal 0.631794 -0.0283772 -0.774617
  outer loop
   vertex 0.012186 -0.272811 0.003367
   vertex 0.00547 -0.271875 -0.002145
   vertex 0.00928 -0.23531 -0.000377
  endloop
 endfacet
 facet normal 0.682112 -0.0201204 -0.730971
  outer loop
   vertex 0.016557 -0.235724 0.006425
   vertex 0.012186 -0.272811 0.003367
   vertex 0.00928 -0.23531 -0.000377
  endloop
 endfacet
 facet normal 0.798266 -0.0445551 -0.600655
  outer loop
   vertex 0.016911 -0.273492 0.009697
   vertex 0.012186 -0.272811 0.003367
   vertex 0.016557 -0.235724 0.006425
  endloop
 endfacet
 facet normal 0.559507 -0.0951511 0.823346
  outer loop
   vertex 0.009621 -0.273405 0.014661
   vertex 0.006367 -0.309975 0.012646
   vertex 0.016911 -0.273492 0.009697
  endloop
 endfacet
 facet normal -0.0281263 -0.0524993 0.998225
  outer loop
   vertex -0.004671 -0.310279 0.012319
   vertex 0.006367 -0.309975 0.012646
   vertex 0.009621 -0.273405 0.014661
  endloop
 endfacet
 facet normal 0.975742 -0.00980164 -0.218704
  outer loop
   vertex 0.018371 -0.236235 0.014541
   vertex 0.016911 -0.273492 0.009697
   vertex 0.016557 -0.235724 0.006425
  endloop
 endfacet
 facet normal 0.557122 -0.128501 0.820428
  outer loop
   vertex 0.009621 -0.273405 0.014661
   vertex 0.016911 -0.273492 0.009697
   vertex 0.018371 -0.236235 0.014541
  endloop
 endfacet
 facet normal -0.987605 0.126965 -0.0922814
  outer loop
   vertex -0.005797 -0.309708 -0.005621
   vertex -0.010907 -0.346302 -0.001281
   vertex -0.006749 -0.310454 0.003541
  endloop
 endfacet
 facet normal -0.299363 0.055532 0.952522
  outer loop
   vertex -0.002314 -0.277144 0.011128
   vertex -0.004671 -0.310279 0.012319
   vertex 0.009621 -0.273405 0.014661
  endloop
 endfacet
 facet normal -0.970542 0.0772407 0.228215
  outer loop
   vertex -0.006749 -0.310454 0.003541
   vertex -0.004671 -0.310279 0.012319
   vertex -0.002314 -0.277144 0.011128
  endloop
 endfacet
 facet normal -0.911889 0.0281468 0.409471
  outer loop
   vertex -0.004813 -0.27402 0.005348
   vertex -0.006749 -0.310454 0.003541
   vertex -0.002314 -0.277144 0.011128
  endloop
 endfacet
 facet normal -0.993461 0.0576765 -0.0985317
  outer loop
   vertex -0.005797 -0.309708 -0.005621
   vertex -0.006749 -0.310454 0.003541
   vertex -0.004813 -0.27402 0.005348
  endloop
 endfacet
 facet normal -0.544674 -0.803533 0.240135
  outer loop
   vertex -0.003142 -0.389712 -0.01848
   vertex -0.014418 -0.381415 -0.016293
   vertex -0.010369 -0.386008 -0.022478
  endloop
 endfacet
 facet normal -0.733927 0.218872 -0.642998
  outer loop
   vertex -0.004577 -0.378822 -0.026643
   vertex -0.010369 -0.386008 -0.022478
   vertex -0.014418 -0.381415 -0.016293
  endloop
 endfacet
 facet normal -0.588024 -0.737185 -0.332846
  outer loop
   vertex 0.002113 -0.393971 -0.018331
   vertex -0.003142 -0.389712 -0.01848
   vertex 0.001086 -0.389067 -0.027378
  endloop
 endfacet
 facet normal -0.341131 -0.911897 -0.228196
  outer loop
   vertex -0.010369 -0.386008 -0.022478
   vertex 0.001086 -0.389067 -0.027378
   vertex -0.003142 -0.389712 -0.01848
  endloop
 endfacet
 facet normal 0.0691727 -0.873731 -0.481466
  outer loop
   vertex 0.002113 -0.393971 -0.018331
   vertex 0.001086 -0.389067 -0.027378
   vertex 0.00651 -0.389673 -0.025499
  endloop
 endfacet
 facet normal 0.341817 0.253857 -0.90483
  outer loop
   vertex 0.00651 -0.389673 -0.025499
   vertex 0.001086 -0.389067 -0.027378
   vertex -0.004577 -0.378822 -0.026643
  endloop
 endfacet
 facet normal -0.425847 -0.171657 -0.888363
  outer loop
   vertex -0.010369 -0.386008 -0.022478
   vertex -0.004577 -0.378822 -0.026643
   vertex 0.001086 -0.389067 -0.027378
  endloop
 endfacet
 facet normal -0.970412 0.0949857 -0.221986
  outer loop
   vertex -0.002709 -0.272642 -0.00326
   vertex -0.005797 -0.309708 -0.005621
   vertex -0.004813 -0.27402 0.005348
  endloop
 endfacet
 facet normal -0.971972 0.0523862 -0.229187
  outer loop
   vertex -0.002709 -0.272642 -0.00326
   vertex -0.004813 -0.27402 0.005348
   vertex -0.002233 -0.23424 0.003499
  endloop
 endfacet
 facet normal -0.851055 0.101232 -0.515226
  outer loop
   vertex 0.001871 -0.234927 -0.003415
   vertex -0.002709 -0.272642 -0.00326
   vertex -0.002233 -0.23424 0.003499
  endloop
 endfacet
 facet normal 0.379177 -0.00464248 -0.925313
  outer loop
   vertex 0.00928 -0.23531 -0.000377
   vertex 0.001871 -0.234927 -0.003415
   vertex 0.003288 -0.201111 -0.003004
  endloop
 endfacet
 facet normal -0.859925 -0.000129774 -0.51042
  outer loop
   vertex 0.001871 -0.234927 -0.003415
   vertex -0.002233 -0.23424 0.003499
   vertex -0.001645 -0.201309 0.0025
  endloop
 endfacet
 facet normal -0.744805 0.0393058 -0.666123
  outer loop
   vertex 0.003288 -0.201111 -0.003004
   vertex 0.001871 -0.234927 -0.003415
   vertex -0.001645 -0.201309 0.0025
  endloop
 endfacet
 facet normal 0.228365 -0.034726 -0.972956
  outer loop
   vertex 0.011879 -0.200371 -0.001014
   vertex 0.00928 -0.23531 -0.000377
   vertex 0.003288 -0.201111 -0.003004
  endloop
 endfacet
 facet normal 0.679526 -0.0638727 -0.730866
  outer loop
   vertex 0.016557 -0.235724 0.006425
   vertex 0.00928 -0.23531 -0.000377
   vertex 0.011879 -0.200371 -0.001014
  endloop
 endfacet
 facet normal 0.721619 -0.049808 -0.690496
  outer loop
   vertex 0.018174 -0.20165 0.005657
   vertex 0.016557 -0.235724 0.006425
   vertex 0.011879 -0.200371 -0.001014
  endloop
 endfacet
 facet normal 0.973949 -0.0511984 -0.22091
  outer loop
   vertex 0.018371 -0.236235 0.014541
   vertex 0.016557 -0.235724 0.006425
   vertex 0.018174 -0.20165 0.005657
  endloop
 endfacet
 facet normal 0.11337 -0.0234811 0.993275
  outer loop
   vertex 0.009639 -0.237066 0.015518
   vertex 0.009621 -0.273405 0.014661
   vertex 0.018371 -0.236235 0.014541
  endloop
 endfacet
 facet normal -0.277281 -0.0225152 0.960525
  outer loop
   vertex -0.002314 -0.277144 0.011128
   vertex 0.009621 -0.273405 0.014661
   vertex 0.009639 -0.237066 0.015518
  endloop
 endfacet
 facet normal 0.91528 -0.0953214 -0.391378
  outer loop
   vertex 0.021522 -0.202025 0.013578
   vertex 0.018371 -0.236235 0.014541
   vertex 0.018174 -0.20165 0.005657
  endloop
 endfacet
 facet normal 0.200356 0.00912342 0.979681
  outer loop
   vertex 0.012236 -0.201693 0.015474
   vertex 0.018371 -0.236235 0.014541
   vertex 0.021522 -0.202025 0.013578
  endloop
 endfacet
 facet normal 0.111846 -0.00697543 0.993701
  outer loop
   vertex 0.009639 -0.237066 0.015518
   vertex 0.018371 -0.236235 0.014541
   vertex 0.012236 -0.201693 0.015474
  endloop
 endfacet
 facet normal -0.262725 -0.0272902 0.964485
  outer loop
   vertex 0.002032 -0.235506 0.01349
   vertex -0.002314 -0.277144 0.011128
   vertex 0.009639 -0.237066 0.015518
  endloop
 endfacet
 facet normal -0.901342 0.0698309 0.427441
  outer loop
   vertex -0.004813 -0.27402 0.005348
   vertex -0.002314 -0.277144 0.011128
   vertex 0.002032 -0.235506 0.01349
  endloop
 endfacet
 facet normal -0.913319 0.0778151 0.399742
  outer loop
   vertex -0.002233 -0.23424 0.003499
   vertex -0.004813 -0.27402 0.005348
   vertex 0.002032 -0.235506 0.01349
  endloop
 endfacet
 facet normal -0.920818 -0.0537145 0.386276
  outer loop
   vertex -0.002233 -0.23424 0.003499
   vertex 0.002032 -0.235506 0.01349
   vertex -0.000905 -0.201942 0.011156
  endloop
 endfacet
 facet normal -0.99603 0.0204131 0.0866432
  outer loop
   vertex -0.001645 -0.201309 0.0025
   vertex -0.002233 -0.23424 0.003499
   vertex -0.000905 -0.201942 0.011156
  endloop
 endfacet
 facet normal 0.230898 -0.0710683 -0.970379
  outer loop
   vertex 0.011879 -0.200371 -0.001014
   vertex 0.003288 -0.201111 -0.003004
   vertex 0.008501 -0.16286 -0.004565
  endloop
 endfacet
 facet normal -0.744102 -0.0220853 -0.667701
  outer loop
   vertex 0.003288 -0.201111 -0.003004
   vertex -0.001645 -0.201309 0.0025
   vertex 0.001244 -0.163112 -0.001983
  endloop
 endfacet
 facet normal -0.335425 0.00726898 -0.942039
  outer loop
   vertex 0.008501 -0.16286 -0.004565
   vertex 0.003288 -0.201111 -0.003004
   vertex 0.001244 -0.163112 -0.001983
  endloop
 endfacet
 facet normal -0.996374 -0.0107736 0.084392
  outer loop
   vertex -0.001645 -0.201309 0.0025
   vertex -0.000905 -0.201942 0.011156
   vertex -0.002206 -0.161544 0.000953
  endloop
 endfacet
 facet normal -0.657718 -0.0385453 -0.752278
  outer loop
   vertex 0.001244 -0.163112 -0.001983
   vertex -0.001645 -0.201309 0.0025
   vertex -0.002206 -0.161544 0.000953
  endloop
 endfacet
 facet normal 0.611007 -0.0198926 -0.791375
  outer loop
   vertex 0.013828 -0.163501 -0.000436
   vertex 0.011879 -0.200371 -0.001014
   vertex 0.008501 -0.16286 -0.004565
  endloop
 endfacet
 facet normal 0.724395 -0.0274938 -0.688837
  outer loop
   vertex 0.018174 -0.20165 0.005657
   vertex 0.011879 -0.200371 -0.001014
   vertex 0.013828 -0.163501 -0.000436
  endloop
 endfacet
 facet normal 0.729018 -0.0261936 -0.683993
  outer loop
   vertex 0.018499 -0.163802 0.004554
   vertex 0.018174 -0.20165 0.005657
   vertex 0.013828 -0.163501 -0.000436
  endloop
 endfacet
 facet normal 0.920602 -0.0192717 -0.390027
  outer loop
   vertex 0.021522 -0.202025 0.013578
   vertex 0.018174 -0.20165 0.005657
   vertex 0.018499 -0.163802 0.004554
  endloop
 endfacet
 facet normal -0.195543 0.015576 0.980571
  outer loop
   vertex 0.003049 -0.201444 0.013638
   vertex 0.009639 -0.237066 0.015518
   vertex 0.012236 -0.201693 0.015474
  endloop
 endfacet
 facet normal -0.256933 0.0034722 0.966423
  outer loop
   vertex 0.002032 -0.235506 0.01349
   vertex 0.009639 -0.237066 0.015518
   vertex 0.003049 -0.201444 0.013638
  endloop
 endfacet
 facet normal 0.953408 0.00418633 -0.301655
  outer loop
   vertex 0.021684 -0.164268 0.014614
   vertex 0.021522 -0.202025 0.013578
   vertex 0.018499 -0.163802 0.004554
  endloop
 endfacet
 facet normal 0.199022 -0.0277329 0.979603
  outer loop
   vertex 0.012236 -0.201693 0.015474
   vertex 0.021522 -0.202025 0.013578
   vertex 0.021684 -0.164268 0.014614
  endloop
 endfacet
 facet normal 0.00331768 0.022136 0.999749
  outer loop
   vertex 0.009763 -0.162391 0.014612
   vertex 0.012236 -0.201693 0.015474
   vertex 0.021684 -0.164268 0.014614
  endloop
 endfacet
 facet normal -0.195725 0.00919199 0.980616
  outer loop
   vertex 0.003049 -0.201444 0.013638
   vertex 0.012236 -0.201693 0.015474
   vertex 0.009763 -0.162391 0.014612
  endloop
 endfacet
 facet normal -0.532718 0.0122288 0.846204
  outer loop
   vertex -0.000905 -0.201942 0.011156
   vertex 0.002032 -0.235506 0.01349
   vertex 0.003049 -0.201444 0.013638
  endloop
 endfacet
 facet normal -0.536679 0.0703836 0.840846
  outer loop
   vertex -0.000905 -0.201942 0.011156
   vertex 0.003049 -0.201444 0.013638
   vertex -0.001329 -0.162442 0.007579
  endloop
 endfacet
 facet normal -0.991331 0.00125627 0.13138
  outer loop
   vertex -0.002206 -0.161544 0.000953
   vertex -0.000905 -0.201942 0.011156
   vertex -0.001329 -0.162442 0.007579
  endloop
 endfacet
 facet normal 0.61222 -0.0052668 -0.79067
  outer loop
   vertex 0.013828 -0.163501 -0.000436
   vertex 0.008501 -0.16286 -0.004565
   vertex 0.01022 -0.127426 -0.00347
  endloop
 endfacet
 facet normal -0.332349 -0.0677806 -0.940718
  outer loop
   vertex 0.008501 -0.16286 -0.004565
   vertex 0.001244 -0.163112 -0.001983
   vertex 0.004528 -0.12839 -0.005645
  endloop
 endfacet
 facet normal 0.355197 0.0116536 -0.934719
  outer loop
   vertex 0.01022 -0.127426 -0.00347
   vertex 0.008501 -0.16286 -0.004565
   vertex 0.004528 -0.12839 -0.005645
  endloop
 endfacet
 facet normal -0.649364 -0.00484133 -0.760462
  outer loop
   vertex 0.001244 -0.163112 -0.001983
   vertex -0.002206 -0.161544 0.000953
   vertex -0.004529 -0.126103 0.002711
  endloop
 endfacet
 facet normal -0.67981 -0.0130391 -0.733272
  outer loop
   vertex 0.004528 -0.12839 -0.005645
   vertex 0.001244 -0.163112 -0.001983
   vertex -0.004529 -0.126103 0.002711
  endloop
 endfacet
 facet normal -0.991377 -0.0335791 0.126665
  outer loop
   vertex -0.002206 -0.161544 0.000953
   vertex -0.001329 -0.162442 0.007579
   vertex -0.002257 -0.126255 0.009909
  endloop
 endfacet
 facet normal -0.951246 -0.0771628 0.298625
  outer loop
   vertex -0.004529 -0.126103 0.002711
   vertex -0.002206 -0.161544 0.000953
   vertex -0.002257 -0.126255 0.009909
  endloop
 endfacet
 facet normal 0.678628 0.00610246 -0.734457
  outer loop
   vertex 0.01592 -0.127031 0.0018
   vertex 0.013828 -0.163501 -0.000436
   vertex 0.01022 -0.127426 -0.00347
  endloop
 endfacet
 facet normal 0.730058 2.10826e-05 -0.683385
  outer loop
   vertex 0.018499 -0.163802 0.004554
   vertex 0.013828 -0.163501 -0.000436
   vertex 0.01592 -0.127031 0.0018
  endloop
 endfacet
 facet normal 0.728292 -0.00024364 -0.685267
  outer loop
   vertex 0.022417 -0.127245 0.008705
   vertex 0.018499 -0.163802 0.004554
   vertex 0.01592 -0.127031 0.0018
  endloop
 endfacet
 facet normal 0.950295 -0.0673311 -0.303983
  outer loop
   vertex 0.021684 -0.164268 0.014614
   vertex 0.018499 -0.163802 0.004554
   vertex 0.022417 -0.127245 0.008705
  endloop
 endfacet
 facet normal -0.534377 0.0708635 0.842271
  outer loop
   vertex -0.001329 -0.162442 0.007579
   vertex 0.003049 -0.201444 0.013638
   vertex 0.009763 -0.162391 0.014612
  endloop
 endfacet
 facet normal 0.999683 -0.0168039 0.0187233
  outer loop
   vertex 0.022344 -0.126254 0.013492
   vertex 0.021684 -0.164268 0.014614
   vertex 0.022417 -0.127245 0.008705
  endloop
 endfacet
 facet normal 0.00446536 0.0294248 0.999557
  outer loop
   vertex 0.009763 -0.162391 0.014612
   vertex 0.021684 -0.164268 0.014614
   vertex 0.022344 -0.126254 0.013492
  endloop
 endfacet
 facet normal 0.0563897 0.0113099 0.998345
  outer loop
   vertex 0.009423 -0.125652 0.014215
   vertex 0.009763 -0.162391 0.014612
   vertex 0.022344 -0.126254 0.013492
  endloop
 endfacet
 facet normal -0.535499 0.00417015 0.844525
  outer loop
   vertex -0.001329 -0.162442 0.007579
   vertex 0.009763 -0.162391 0.014612
   vertex 0.009423 -0.125652 0.014215
  endloop
 endfacet
 facet normal -0.341936 -0.0691116 0.937178
  outer loop
   vertex -0.002257 -0.126255 0.009909
   vertex -0.001329 -0.162442 0.007579
   vertex 0.009423 -0.125652 0.014215
  endloop
 endfacet
 facet normal 0.679456 -0.0190239 -0.73347
  outer loop
   vertex 0.01592 -0.127031 0.0018
   vertex 0.01022 -0.127426 -0.00347
   vertex 0.009279 -0.086546 -0.005402
  endloop
 endfacet
 facet normal 0.357149 -0.00139338 -0.934046
  outer loop
   vertex 0.01022 -0.127426 -0.00347
   vertex 0.004528 -0.12839 -0.005645
   vertex -0.00122 -0.087399 -0.007904
  endloop
 endfacet
 facet normal 0.234739 -0.0404965 -0.971215
  outer loop
   vertex 0.009279 -0.086546 -0.005402
   vertex 0.01022 -0.127426 -0.00347
   vertex -0.00122 -0.087399 -0.007904
  endloop
 endfacet
 facet normal -0.689814 -0.128735 -0.712449
  outer loop
   vertex 0.004528 -0.12839 -0.005645
   vertex -0.004529 -0.126103 0.002711
   vertex -0.00762 -0.08706 -0.001351
  endloop
 endfacet
 facet normal -0.712138 -0.137797 -0.688383
  outer loop
   vertex -0.00122 -0.087399 -0.007904
   vertex 0.004528 -0.12839 -0.005645
   vertex -0.00762 -0.08706 -0.001351
  endloop
 endfacet
 facet normal -0.949647 -0.0977441 0.297685
  outer loop
   vertex -0.004529 -0.126103 0.002711
   vertex -0.002257 -0.126255 0.009909
   vertex -0.006384 -0.087861 0.00935
  endloop
 endfacet
 facet normal -0.991716 -0.0671187 0.109522
  outer loop
   vertex -0.00762 -0.08706 -0.001351
   vertex -0.004529 -0.126103 0.002711
   vertex -0.006384 -0.087861 0.00935
  endloop
 endfacet
 facet normal -0.333584 -0.165682 0.928047
  outer loop
   vertex -0.002257 -0.126255 0.009909
   vertex 0.009423 -0.125652 0.014215
   vertex -0.002449 -0.087303 0.016794
  endloop
 endfacet
 facet normal -0.877962 -0.0875201 0.470663
  outer loop
   vertex -0.006384 -0.087861 0.00935
   vertex -0.002257 -0.126255 0.009909
   vertex -0.002449 -0.087303 0.016794
  endloop
 endfacet
 facet normal 0.660216 -0.0252364 -0.750652
  outer loop
   vertex 0.021123 -0.086484 0.005013
   vertex 0.01592 -0.127031 0.0018
   vertex 0.009279 -0.086546 -0.005402
  endloop
 endfacet
 facet normal 0.727139 -0.0389959 -0.685382
  outer loop
   vertex 0.022417 -0.127245 0.008705
   vertex 0.01592 -0.127031 0.0018
   vertex 0.021123 -0.086484 0.005013
  endloop
 endfacet
 facet normal 0.997306 0.0254278 -0.0688109
  outer loop
   vertex 0.021862 -0.087027 0.015523
   vertex 0.022417 -0.127245 0.008705
   vertex 0.021123 -0.086484 0.005013
  endloop
 endfacet
 facet normal 0.99985 0.0116207 0.0128414
  outer loop
   vertex 0.022344 -0.126254 0.013492
   vertex 0.022417 -0.127245 0.008705
   vertex 0.021862 -0.087027 0.015523
  endloop
 endfacet
 facet normal 0.149832 -0.0492864 0.987482
  outer loop
   vertex 0.006991 -0.087075 0.017777
   vertex 0.022344 -0.126254 0.013492
   vertex 0.021862 -0.087027 0.015523
  endloop
 endfacet
 facet normal 0.0515327 -0.0885997 0.994733
  outer loop
   vertex 0.009423 -0.125652 0.014215
   vertex 0.022344 -0.126254 0.013492
   vertex 0.006991 -0.087075 0.017777
  endloop
 endfacet
 facet normal -0.100739 -0.0977713 0.990097
  outer loop
   vertex -0.002449 -0.087303 0.016794
   vertex 0.009423 -0.125652 0.014215
   vertex 0.006991 -0.087075 0.017777
  endloop
 endfacet
 facet normal 0.243142 -0.225382 -0.943443
  outer loop
   vertex -0.001443 -0.072884 -0.011429
   vertex 0.009279 -0.086546 -0.005402
   vertex -0.00122 -0.087399 -0.007904
  endloop
 endfacet
 facet normal 0.415414 -0.0739379 -0.906622
  outer loop
   vertex -0.001443 -0.072884 -0.011429
   vertex 0.010728 -0.060527 -0.00686
   vertex 0.009279 -0.086546 -0.005402
  endloop
 endfacet
 facet normal 0.727052 -0.0787093 -0.682055
  outer loop
   vertex 0.015472 -0.072087 -0.000469
   vertex 0.009279 -0.086546 -0.005402
   vertex 0.010728 -0.060527 -0.00686
  endloop
 endfacet
 facet normal 0.660196 -0.0266814 -0.75062
  outer loop
   vertex 0.015472 -0.072087 -0.000469
   vertex 0.021123 -0.086484 0.005013
   vertex 0.009279 -0.086546 -0.005402
  endloop
 endfacet
 facet normal -0.700703 -0.239827 -0.671936
  outer loop
   vertex -0.012993 -0.059754 -0.005494
   vertex -0.00122 -0.087399 -0.007904
   vertex -0.00762 -0.08706 -0.001351
  endloop
 endfacet
 facet normal -0.614541 -0.195074 -0.764385
  outer loop
   vertex -0.001443 -0.072884 -0.011429
   vertex -0.00122 -0.087399 -0.007904
   vertex -0.012993 -0.059754 -0.005494
  endloop
 endfacet
 facet normal -0.965231 -0.158376 0.207957
  outer loop
   vertex -0.008379 -0.072367 0.006316
   vertex -0.012993 -0.059754 -0.005494
   vertex -0.00762 -0.08706 -0.001351
  endloop
 endfacet
 facet normal -0.988624 -0.106495 0.106218
  outer loop
   vertex -0.008379 -0.072367 0.006316
   vertex -0.00762 -0.08706 -0.001351
   vertex -0.006384 -0.087861 0.00935
  endloop
 endfacet
 facet normal -0.883184 -0.0219757 0.468511
  outer loop
   vertex -0.008379 -0.072367 0.006316
   vertex -0.006384 -0.087861 0.00935
   vertex -0.002449 -0.087303 0.016794
  endloop
 endfacet
 facet normal -0.649811 -0.166032 0.741741
  outer loop
   vertex -0.008932 -0.058651 0.017528
   vertex -0.002449 -0.087303 0.016794
   vertex -0.004197 -0.058263 0.021763
  endloop
 endfacet
 facet normal -0.949541 -0.220562 0.222987
  outer loop
   vertex -0.008379 -0.072367 0.006316
   vertex -0.002449 -0.087303 0.016794
   vertex -0.008932 -0.058651 0.017528
  endloop
 endfacet
 facet normal -0.0978513 -0.173568 0.979949
  outer loop
   vertex -0.004197 -0.058263 0.021763
   vertex -0.002449 -0.087303 0.016794
   vertex 0.006991 -0.087075 0.017777
  endloop
 endfacet
 facet normal 0.951722 -0.295751 -0.0821994
  outer loop
   vertex 0.021123 -0.086484 0.005013
   vertex 0.027614 -0.066578 0.008546
   vertex 0.021862 -0.087027 0.015523
  endloop
 endfacet
 facet normal 0.858768 -0.19601 -0.47339
  outer loop
   vertex 0.02399 -0.06917 0.003045
   vertex 0.027614 -0.066578 0.008546
   vertex 0.021123 -0.086484 0.005013
  endloop
 endfacet
 facet normal 0.425315 -0.171437 -0.88866
  outer loop
   vertex 0.015472 -0.072087 -0.000469
   vertex 0.02399 -0.06917 0.003045
   vertex 0.021123 -0.086484 0.005013
  endloop
 endfacet
 facet normal 0.149089 -0.124272 0.980984
  outer loop
   vertex 0.006991 -0.087075 0.017777
   vertex 0.021862 -0.087027 0.015523
   vertex 0.013465 -0.076048 0.01819
  endloop
 endfacet
 facet normal -0.0357196 -0.261617 0.964511
  outer loop
   vertex 0.021862 -0.087027 0.015523
   vertex 0.016271 -0.068571 0.020322
   vertex 0.013465 -0.076048 0.01819
  endloop
 endfacet
 facet normal 0.91493 -0.126597 0.383245
  outer loop
   vertex 0.027614 -0.066578 0.008546
   vertex 0.023884 -0.068999 0.016651
   vertex 0.021862 -0.087027 0.015523
  endloop
 endfacet
 facet normal 0.427227 -0.104113 0.89813
  outer loop
   vertex 0.016271 -0.068571 0.020322
   vertex 0.021862 -0.087027 0.015523
   vertex 0.023884 -0.068999 0.016651
  endloop
 endfacet
 facet normal -0.11144 -0.17852 0.977605
  outer loop
   vertex -0.004197 -0.058263 0.021763
   vertex 0.006991 -0.087075 0.017777
   vertex 0.010486 -0.05577 0.023892
  endloop
 endfacet
 facet normal 0.307745 -0.215389 0.926769
  outer loop
   vertex 0.010486 -0.05577 0.023892
   vertex 0.006991 -0.087075 0.017777
   vertex 0.013465 -0.076048 0.01819
  endloop
 endfacet
 facet normal -0.643296 -0.236778 -0.728084
  outer loop
   vertex -0.001443 -0.072884 -0.011429
   vertex -0.012993 -0.059754 -0.005494
   vertex -0.002444 -0.062354 -0.013969
  endloop
 endfacet
 facet normal 0.485954 -0.161015 -0.859025
  outer loop
   vertex -0.001443 -0.072884 -0.011429
   vertex -0.002444 -0.062354 -0.013969
   vertex 0.010728 -0.060527 -0.00686
  endloop
 endfacet
 facet normal 0.545802 -0.1883 -0.816482
  outer loop
   vertex 0.008601 -0.050922 -0.010497
   vertex 0.020707 -0.05885 -0.000576
   vertex 0.010728 -0.060527 -0.00686
  endloop
 endfacet
 facet normal 0.486764 -0.212994 -0.847168
  outer loop
   vertex 0.008601 -0.050922 -0.010497
   vertex 0.010728 -0.060527 -0.00686
   vertex -0.002444 -0.062354 -0.013969
  endloop
 endfacet
 facet normal 0.546013 -0.222467 -0.807699
  outer loop
   vertex 0.015472 -0.072087 -0.000469
   vertex 0.010728 -0.060527 -0.00686
   vertex 0.020707 -0.05885 -0.000576
  endloop
 endfacet
 facet normal 0.426258 -0.17575 -0.887365
  outer loop
   vertex 0.015472 -0.072087 -0.000469
   vertex 0.020707 -0.05885 -0.000576
   vertex 0.02399 -0.06917 0.003045
  endloop
 endfacet
 facet normal -0.848007 -0.500754 0.173577
  outer loop
   vertex -0.017281 -0.046399 0.012085
   vertex -0.012993 -0.059754 -0.005494
   vertex -0.008932 -0.058651 0.017528
  endloop
 endfacet
 facet normal -0.599895 -0.700775 0.386057
  outer loop
   vertex -0.017281 -0.046399 0.012085
   vertex -0.02522 -0.039599 0.012092
   vertex -0.012993 -0.059754 -0.005494
  endloop
 endfacet
 facet normal -0.729369 -0.643966 0.23093
  outer loop
   vertex -0.02522 -0.039599 0.012092
   vertex -0.024312 -0.047352 -0.00666
   vertex -0.012993 -0.059754 -0.005494
  endloop
 endfacet
 facet normal -0.71984 -0.672974 -0.170106
  outer loop
   vertex -0.024312 -0.047352 -0.00666
   vertex -0.022501 -0.04752 -0.013659
   vertex -0.012993 -0.059754 -0.005494
  endloop
 endfacet
 facet normal -0.619981 -0.707805 -0.338579
  outer loop
   vertex -0.022501 -0.04752 -0.013659
   vertex -0.015444 -0.049644 -0.022141
   vertex -0.012993 -0.059754 -0.005494
  endloop
 endfacet
 facet normal -0.504858 -0.768776 -0.392558
  outer loop
   vertex -0.015444 -0.049644 -0.022141
   vertex -0.002444 -0.062354 -0.013969
   vertex -0.012993 -0.059754 -0.005494
  endloop
 endfacet
 facet normal -0.96614 -0.18553 0.179313
  outer loop
   vertex -0.008379 -0.072367 0.006316
   vertex -0.008932 -0.058651 0.017528
   vertex -0.012993 -0.059754 -0.005494
  endloop
 endfacet
 facet normal -0.560061 -0.48626 0.670733
  outer loop
   vertex -0.015335 -0.047665 0.020146
   vertex -0.008932 -0.058651 0.017528
   vertex -0.004197 -0.058263 0.021763
  endloop
 endfacet
 facet normal -0.844587 -0.52133 0.122015
  outer loop
   vertex -0.017281 -0.046399 0.012085
   vertex -0.008932 -0.058651 0.017528
   vertex -0.015335 -0.047665 0.020146
  endloop
 endfacet
 facet normal -0.661822 -0.634668 0.398984
  outer loop
   vertex -0.011751 -0.04508 0.030203
   vertex -0.015335 -0.047665 0.020146
   vertex -0.004197 -0.058263 0.021763
  endloop
 endfacet
 facet normal -0.0276071 -0.550151 0.834609
  outer loop
   vertex -0.011751 -0.04508 0.030203
   vertex -0.004197 -0.058263 0.021763
   vertex 0.010486 -0.05577 0.023892
  endloop
 endfacet
 facet normal 0.914988 -0.118013 0.385836
  outer loop
   vertex 0.023884 -0.068999 0.016651
   vertex 0.027614 -0.066578 0.008546
   vertex 0.024991 -0.059978 0.016785
  endloop
 endfacet
 facet normal 0.941129 -0.0443243 0.335128
  outer loop
   vertex 0.02732 -0.055113 0.010888
   vertex 0.024991 -0.059978 0.016785
   vertex 0.027614 -0.066578 0.008546
  endloop
 endfacet
 facet normal 0.820019 0.0611988 -0.569055
  outer loop
   vertex 0.020707 -0.05885 -0.000576
   vertex 0.027614 -0.066578 0.008546
   vertex 0.02399 -0.06917 0.003045
  endloop
 endfacet
 facet normal 0.840157 0.129144 -0.526742
  outer loop
   vertex 0.020707 -0.05885 -0.000576
   vertex 0.02732 -0.055113 0.010888
   vertex 0.027614 -0.066578 0.008546
  endloop
 endfacet
 facet normal -0.00727907 -0.271677 0.962361
  outer loop
   vertex 0.016271 -0.068571 0.020322
   vertex 0.010486 -0.05577 0.023892
   vertex 0.013465 -0.076048 0.01819
  endloop
 endfacet
 facet normal 0.620038 -0.337709 0.708171
  outer loop
   vertex 0.020106 -0.052754 0.024507
   vertex 0.016271 -0.068571 0.020322
   vertex 0.024991 -0.059978 0.016785
  endloop
 endfacet
 facet normal 0.0198743 -0.260237 0.96534
  outer loop
   vertex 0.020106 -0.052754 0.024507
   vertex 0.010486 -0.05577 0.023892
   vertex 0.016271 -0.068571 0.020322
  endloop
 endfacet
 facet normal 0.430368 -0.0661841 0.900224
  outer loop
   vertex 0.016271 -0.068571 0.020322
   vertex 0.023884 -0.068999 0.016651
   vertex 0.024991 -0.059978 0.016785
  endloop
 endfacet
 facet normal -0.0124317 -0.527393 0.849531
  outer loop
   vertex -0.011751 -0.04508 0.030203
   vertex 0.010486 -0.05577 0.023892
   vertex 0.009818 -0.036497 0.035847
  endloop
 endfacet
 facet normal 0.109302 -0.521226 0.84639
  outer loop
   vertex 0.009818 -0.036497 0.035847
   vertex 0.010486 -0.05577 0.023892
   vertex 0.020106 -0.052754 0.024507
  endloop
 endfacet
 facet normal -0.120992 -0.621442 -0.774061
  outer loop
   vertex -0.015444 -0.049644 -0.022141
   vertex -0.005567 -0.048463 -0.024633
   vertex -0.002444 -0.062354 -0.013969
  endloop
 endfacet
 facet normal 0.120992 0.621442 0.774061
  outer loop
   vertex -0.002444 -0.062354 -0.013969
   vertex -0.005567 -0.048463 -0.024633
   vertex -0.015444 -0.049644 -0.022141
  endloop
 endfacet
 facet normal 0.616541 -0.387524 -0.685348
  outer loop
   vertex 0.008601 -0.050922 -0.010497
   vertex -0.002444 -0.062354 -0.013969
   vertex -0.005567 -0.048463 -0.024633
  endloop
 endfacet
 facet normal 0.499232 0.612647 -0.612724
  outer loop
   vertex -0.005969 -0.020983 0.007567
   vertex 0.003491 -0.022903 0.013355
   vertex 0.008601 -0.050922 -0.010497
  endloop
 endfacet
 facet normal 0.624372 -0.366883 -0.689606
  outer loop
   vertex 0.008601 -0.050922 -0.010497
   vertex -0.005567 -0.048463 -0.024633
   vertex 0.018731 -0.041654 -0.006256
  endloop
 endfacet
 facet normal 0.53425 -0.209147 -0.819045
  outer loop
   vertex 0.008601 -0.050922 -0.010497
   vertex 0.018731 -0.041654 -0.006256
   vertex 0.020707 -0.05885 -0.000576
  endloop
 endfacet
 facet normal 0.956363 0.013489 -0.291869
  outer loop
   vertex 0.018731 -0.041654 -0.006256
   vertex 0.021708 -0.045672 0.003313
   vertex 0.020707 -0.05885 -0.000576
  endloop
 endfacet
 facet normal 0.850019 0.0886659 -0.519236
  outer loop
   vertex 0.021708 -0.045672 0.003313
   vertex 0.02732 -0.055113 0.010888
   vertex 0.020707 -0.05885 -0.000576
  endloop
 endfacet
 facet normal -0.650041 -0.758962 0.0377292
  outer loop
   vertex -0.02522 -0.039599 0.012092
   vertex -0.017281 -0.046399 0.012085
   vertex -0.015335 -0.047665 0.020146
  endloop
 endfacet
 facet normal -0.930168 -0.02725 -0.366121
  outer loop
   vertex -0.026132 -0.029804 0.01368
   vertex -0.024591 -0.026755 0.009538
   vertex -0.02522 -0.039599 0.012092
  endloop
 endfacet
 facet normal -0.982258 -0.0628096 -0.176701
  outer loop
   vertex -0.027334 -0.031321 0.020901
   vertex -0.026132 -0.029804 0.01368
   vertex -0.02522 -0.039599 0.012092
  endloop
 endfacet
 facet normal -0.983381 -0.160178 -0.0854711
  outer loop
   vertex -0.025935 -0.042262 0.025309
   vertex -0.027334 -0.031321 0.020901
   vertex -0.02522 -0.039599 0.012092
  endloop
 endfacet
 facet normal -0.939676 -0.0218618 -0.341366
  outer loop
   vertex -0.02522 -0.039599 0.012092
   vertex -0.024591 -0.026755 0.009538
   vertex -0.022256 -0.028325 0.003211
  endloop
 endfacet
 facet normal -0.849049 0.446136 0.282982
  outer loop
   vertex -0.029693 -0.039725 -0.00113
   vertex -0.02522 -0.039599 0.012092
   vertex -0.022256 -0.028325 0.003211
  endloop
 endfacet
 facet normal -0.700594 -0.670763 0.243403
  outer loop
   vertex -0.029693 -0.039725 -0.00113
   vertex -0.024312 -0.047352 -0.00666
   vertex -0.02522 -0.039599 0.012092
  endloop
 endfacet
 facet normal -0.519335 -0.831861 -0.1957
  outer loop
   vertex -0.025935 -0.042262 0.025309
   vertex -0.02522 -0.039599 0.012092
   vertex -0.015335 -0.047665 0.020146
  endloop
 endfacet
 facet normal -0.86717 -0.431406 -0.248808
  outer loop
   vertex -0.029693 -0.039725 -0.00113
   vertex -0.029898 -0.031001 -0.015542
   vertex -0.024312 -0.047352 -0.00666
  endloop
 endfacet
 facet normal -0.881227 -0.419447 -0.217951
  outer loop
   vertex -0.029898 -0.031001 -0.015542
   vertex -0.022501 -0.04752 -0.013659
   vertex -0.024312 -0.047352 -0.00666
  endloop
 endfacet
 facet normal -0.717095 -0.517312 -0.467079
  outer loop
   vertex -0.022501 -0.04752 -0.013659
   vertex -0.024302 -0.032661 -0.027351
   vertex -0.015444 -0.049644 -0.022141
  endloop
 endfacet
 facet normal -0.663497 -0.5489 -0.50841
  outer loop
   vertex -0.022501 -0.04752 -0.013659
   vertex -0.029304 -0.032299 -0.021214
   vertex -0.024302 -0.032661 -0.027351
  endloop
 endfacet
 facet normal -0.912589 -0.408874 -0.00200279
  outer loop
   vertex -0.029898 -0.031001 -0.015542
   vertex -0.029304 -0.032299 -0.021214
   vertex -0.022501 -0.04752 -0.013659
  endloop
 endfacet
 facet normal -0.207117 -0.25868 -0.943497
  outer loop
   vertex -0.004724 -0.027221 -0.030642
   vertex -0.005567 -0.048463 -0.024633
   vertex -0.015444 -0.049644 -0.022141
  endloop
 endfacet
 facet normal 0.130555 -0.405427 -0.904757
  outer loop
   vertex -0.017391 -0.031483 -0.03056
   vertex -0.004724 -0.027221 -0.030642
   vertex -0.015444 -0.049644 -0.022141
  endloop
 endfacet
 facet normal -0.32011 -0.426483 -0.845956
  outer loop
   vertex -0.024302 -0.032661 -0.027351
   vertex -0.017391 -0.031483 -0.03056
   vertex -0.015444 -0.049644 -0.022141
  endloop
 endfacet
 facet normal -0.293401 -0.895474 0.334727
  outer loop
   vertex -0.025935 -0.042262 0.025309
   vertex -0.015335 -0.047665 0.020146
   vertex -0.011751 -0.04508 0.030203
  endloop
 endfacet
 facet normal 0.232842 -0.542049 0.807445
  outer loop
   vertex -0.01578 -0.036723 0.036975
   vertex -0.011751 -0.04508 0.030203
   vertex -0.000725 -0.028391 0.038227
  endloop
 endfacet
 facet normal -0.355375 -0.685906 0.635013
  outer loop
   vertex -0.01578 -0.036723 0.036975
   vertex -0.025935 -0.042262 0.025309
   vertex -0.011751 -0.04508 0.030203
  endloop
 endfacet
 facet normal -0.232842 0.542049 -0.807445
  outer loop
   vertex -0.011751 -0.04508 0.030203
   vertex -0.01578 -0.036723 0.036975
   vertex -0.000725 -0.028391 0.038227
  endloop
 endfacet
 facet normal -0.0877245 -0.383974 0.919167
  outer loop
   vertex -0.000725 -0.028391 0.038227
   vertex -0.011751 -0.04508 0.030203
   vertex 0.009818 -0.036497 0.035847
  endloop
 endfacet
 facet normal -0.232842 0.542049 -0.807445
  outer loop
   vertex -0.000725 -0.028391 0.038227
   vertex -0.011751 -0.04508 0.030203
   vertex -0.01578 -0.036723 0.036975
  endloop
 endfacet
 facet normal 0.854614 0.180872 0.486745
  outer loop
   vertex 0.024991 -0.059978 0.016785
   vertex 0.02732 -0.055113 0.010888
   vertex 0.021936 -0.050659 0.018686
  endloop
 endfacet
 facet normal 0.904398 0.222173 0.364285
  outer loop
   vertex 0.020106 -0.052754 0.024507
   vertex 0.024991 -0.059978 0.016785
   vertex 0.021936 -0.050659 0.018686
  endloop
 endfacet
 facet normal 0.771962 0.607921 0.185761
  outer loop
   vertex 0.02732 -0.055113 0.010888
   vertex 0.021708 -0.045672 0.003313
   vertex 0.021936 -0.050659 0.018686
  endloop
 endfacet
 facet normal 0.776313 0.0531478 0.628103
  outer loop
   vertex 0.009818 -0.036497 0.035847
   vertex 0.020106 -0.052754 0.024507
   vertex 0.017861 -0.03178 0.025507
  endloop
 endfacet
 facet normal 0.94132 0.0851852 0.326589
  outer loop
   vertex 0.017861 -0.03178 0.025507
   vertex 0.020106 -0.052754 0.024507
   vertex 0.021936 -0.050659 0.018686
  endloop
 endfacet
 facet normal 0.487209 0.406797 0.772751
  outer loop
   vertex 0.009818 -0.036497 0.035847
   vertex 0.012097 -0.024951 0.028332
   vertex -0.000725 -0.028391 0.038227
  endloop
 endfacet
 facet normal 0.681984 0.299633 0.667172
  outer loop
   vertex 0.012097 -0.024951 0.028332
   vertex 0.009818 -0.036497 0.035847
   vertex 0.017861 -0.03178 0.025507
  endloop
 endfacet
 facet normal 0.523654 -0.251075 -0.814094
  outer loop
   vertex -0.005567 -0.048463 -0.024633
   vertex -0.004724 -0.027221 -0.030642
   vertex 0.011616 -0.033646 -0.01815
  endloop
 endfacet
 facet normal 0.618303 -0.428865 -0.658616
  outer loop
   vertex 0.018731 -0.041654 -0.006256
   vertex -0.005567 -0.048463 -0.024633
   vertex 0.011616 -0.033646 -0.01815
  endloop
 endfacet
 facet normal -0.22934 -0.971934 0.052426
  outer loop
   vertex -0.000781 -0.022569 0.000859
   vertex 0.003491 -0.022903 0.013355
   vertex -0.005969 -0.020983 0.007567
  endloop
 endfacet
 facet normal 0.22934 0.971934 -0.052426
  outer loop
   vertex -0.000781 -0.022569 0.000859
   vertex -0.005969 -0.020983 0.007567
   vertex 0.003491 -0.022903 0.013355
  endloop
 endfacet
 facet normal -0.22934 -0.971934 0.052426
  outer loop
   vertex 0.003491 -0.022903 0.013355
   vertex -0.005969 -0.020983 0.007567
   vertex -0.000781 -0.022569 0.000859
  endloop
 endfacet
 facet normal 0.105717 0.982533 0.153141
  outer loop
   vertex 0.003491 -0.022903 0.013355
   vertex -0.005969 -0.020983 0.007567
   vertex -0.003705 -0.023207 0.020273
  endloop
 endfacet
 facet normal 0.478637 0.87538 0.0679373
  outer loop
   vertex -0.005969 -0.020983 0.007567
   vertex -0.011229 -0.017999 0.006176
   vertex -0.003705 -0.023207 0.020273
  endloop
 endfacet
 facet normal 0.216494 0.974255 -0.0629094
  outer loop
   vertex -0.005969 -0.020983 0.007567
   vertex -0.000781 -0.022569 0.000859
   vertex -0.006783 -0.021303 -0.00019
  endloop
 endfacet
 facet normal 0.509134 0.8561 -0.088744
  outer loop
   vertex -0.011229 -0.017999 0.006176
   vertex -0.005969 -0.020983 0.007567
   vertex -0.006783 -0.021303 -0.00019
  endloop
 endfacet
 facet normal -0.0487823 0.997868 0.0433486
  outer loop
   vertex 0.010805 -0.021791 -0.004012
   vertex -0.000781 -0.022569 0.000859
   vertex 0.003491 -0.022903 0.013355
  endloop
 endfacet
 facet normal 0.260056 0.950443 0.170377
  outer loop
   vertex 0.014997 -0.025327 0.009315
   vertex 0.010805 -0.021791 -0.004012
   vertex 0.003491 -0.022903 0.013355
  endloop
 endfacet
 facet normal 0.05221 0.993818 0.0979798
  outer loop
   vertex 0.008001 -0.023806 0.020111
   vertex 0.003491 -0.022903 0.013355
   vertex -0.003705 -0.023207 0.020273
  endloop
 endfacet
 facet normal 0.204284 0.978896 -0.00553251
  outer loop
   vertex 0.014997 -0.025327 0.009315
   vertex 0.003491 -0.022903 0.013355
   vertex 0.008001 -0.023806 0.020111
  endloop
 endfacet
 facet normal 0.883848 0.110002 -0.454656
  outer loop
   vertex 0.017004 -0.023963 -0.005333
   vertex 0.018731 -0.041654 -0.006256
   vertex 0.011616 -0.033646 -0.01815
  endloop
 endfacet
 facet normal 0.961236 0.107092 -0.254081
  outer loop
   vertex 0.018731 -0.041654 -0.006256
   vertex 0.017004 -0.023963 -0.005333
   vertex 0.021708 -0.045672 0.003313
  endloop
 endfacet
 facet normal 0.974409 0.222852 0.0294087
  outer loop
   vertex 0.017004 -0.023963 -0.005333
   vertex 0.017861 -0.03178 0.025507
   vertex 0.021708 -0.045672 0.003313
  endloop
 endfacet
 facet normal 0.979806 0.194002 0.0484025
  outer loop
   vertex 0.021708 -0.045672 0.003313
   vertex 0.017861 -0.03178 0.025507
   vertex 0.021936 -0.050659 0.018686
  endloop
 endfacet
 facet normal -0.451395 0.88541 0.11087
  outer loop
   vertex -0.015875 -0.025531 0.021316
   vertex -0.026132 -0.029804 0.01368
   vertex -0.027334 -0.031321 0.020901
  endloop
 endfacet
 facet normal -0.566551 0.750014 0.341318
  outer loop
   vertex -0.015875 -0.025531 0.021316
   vertex -0.024591 -0.026755 0.009538
   vertex -0.026132 -0.029804 0.01368
  endloop
 endfacet
 facet normal -0.566175 0.750445 0.340995
  outer loop
   vertex -0.015875 -0.025531 0.021316
   vertex -0.019581 -0.021936 0.007251
   vertex -0.024591 -0.026755 0.009538
  endloop
 endfacet
 facet normal -0.723035 0.559203 -0.405601
  outer loop
   vertex -0.024591 -0.026755 0.009538
   vertex -0.019581 -0.021936 0.007251
   vertex -0.022256 -0.028325 0.003211
  endloop
 endfacet
 facet normal -0.97018 -0.0270081 0.240877
  outer loop
   vertex -0.025701 -0.030119 0.027613
   vertex -0.027334 -0.031321 0.020901
   vertex -0.025935 -0.042262 0.025309
  endloop
 endfacet
 facet normal -0.448945 0.892129 -0.0505382
  outer loop
   vertex -0.015875 -0.025531 0.021316
   vertex -0.027334 -0.031321 0.020901
   vertex -0.025701 -0.030119 0.027613
  endloop
 endfacet
 facet normal -0.861712 -0.078508 0.501287
  outer loop
   vertex -0.025701 -0.030119 0.027613
   vertex -0.025935 -0.042262 0.025309
   vertex -0.021813 -0.035128 0.033512
  endloop
 endfacet
 facet normal -0.527621 -0.491674 0.692729
  outer loop
   vertex -0.025935 -0.042262 0.025309
   vertex -0.01578 -0.036723 0.036975
   vertex -0.021813 -0.035128 0.033512
  endloop
 endfacet
 facet normal -0.764327 0.594093 -0.250716
  outer loop
   vertex -0.016965 -0.026964 -0.009694
   vertex -0.029693 -0.039725 -0.00113
   vertex -0.022256 -0.028325 0.003211
  endloop
 endfacet
 facet normal -0.908545 0.23096 -0.348142
  outer loop
   vertex -0.018365 -0.021573 -0.002464
   vertex -0.016965 -0.026964 -0.009694
   vertex -0.022256 -0.028325 0.003211
  endloop
 endfacet
 facet normal -0.895151 0.435352 -0.0957767
  outer loop
   vertex -0.019581 -0.021936 0.007251
   vertex -0.018365 -0.021573 -0.002464
   vertex -0.022256 -0.028325 0.003211
  endloop
 endfacet
 facet normal -0.208103 0.679632 0.703416
  outer loop
   vertex -0.029693 -0.039725 -0.00113
   vertex -0.016965 -0.026964 -0.009694
   vertex -0.026769 -0.032244 -0.007493
  endloop
 endfacet
 facet normal -0.714795 0.593713 0.369559
  outer loop
   vertex -0.029898 -0.031001 -0.015542
   vertex -0.029693 -0.039725 -0.00113
   vertex -0.026769 -0.032244 -0.007493
  endloop
 endfacet
 facet normal -0.383832 0.878367 0.284858
  outer loop
   vertex -0.024404 -0.029841 -0.011716
   vertex -0.029898 -0.031001 -0.015542
   vertex -0.026769 -0.032244 -0.007493
  endloop
 endfacet
 facet normal -0.101384 0.983093 -0.152479
  outer loop
   vertex -0.029898 -0.031001 -0.015542
   vertex -0.024404 -0.029841 -0.011716
   vertex -0.01787 -0.029831 -0.015996
  endloop
 endfacet
 facet normal -0.102847 0.967235 -0.232116
  outer loop
   vertex -0.029304 -0.032299 -0.021214
   vertex -0.029898 -0.031001 -0.015542
   vertex -0.01787 -0.029831 -0.015996
  endloop
 endfacet
 facet normal -0.134499 0.9767 -0.167236
  outer loop
   vertex -0.024302 -0.032661 -0.027351
   vertex -0.029304 -0.032299 -0.021214
   vertex -0.01787 -0.029831 -0.015996
  endloop
 endfacet
 facet normal -0.219461 0.96857 -0.117083
  outer loop
   vertex -0.017391 -0.031483 -0.03056
   vertex -0.024302 -0.032661 -0.027351
   vertex -0.01787 -0.029831 -0.015996
  endloop
 endfacet
 facet normal -0.318912 0.94778 -0.00276195
  outer loop
   vertex -0.004724 -0.027221 -0.030642
   vertex -0.017391 -0.031483 -0.03056
   vertex -0.007328 -0.028057 -0.016846
  endloop
 endfacet
 facet normal -0.268435 0.963267 0.00770419
  outer loop
   vertex 0.001064 -0.02565 -0.025397
   vertex -0.004724 -0.027221 -0.030642
   vertex -0.007328 -0.028057 -0.016846
  endloop
 endfacet
 facet normal 0.638525 0.160452 -0.752689
  outer loop
   vertex -0.004724 -0.027221 -0.030642
   vertex 0.001064 -0.02565 -0.025397
   vertex 0.011616 -0.033646 -0.01815
  endloop
 endfacet
 facet normal -0.173952 0.977823 -0.116636
  outer loop
   vertex -0.017391 -0.031483 -0.03056
   vertex -0.01787 -0.029831 -0.015996
   vertex -0.007328 -0.028057 -0.016846
  endloop
 endfacet
 facet normal -0.498643 -0.00413399 0.866798
  outer loop
   vertex -0.01578 -0.036723 0.036975
   vertex -0.019921 -0.027247 0.034638
   vertex -0.021813 -0.035128 0.033512
  endloop
 endfacet
 facet normal -0.244954 0.304279 0.92055
  outer loop
   vertex -0.000725 -0.028391 0.038227
   vertex -0.00772 -0.022541 0.034432
   vertex -0.01578 -0.036723 0.036975
  endloop
 endfacet
 facet normal -0.0652876 0.211951 0.975097
  outer loop
   vertex -0.01578 -0.036723 0.036975
   vertex -0.00772 -0.022541 0.034432
   vertex -0.019921 -0.027247 0.034638
  endloop
 endfacet
 facet normal 0.498643 0.00413399 -0.866798
  outer loop
   vertex -0.021813 -0.035128 0.033512
   vertex -0.019921 -0.027247 0.034638
   vertex -0.01578 -0.036723 0.036975
  endloop
 endfacet
 facet normal 0.40494 0.563003 0.720452
  outer loop
   vertex 0.012097 -0.024951 0.028332
   vertex -0.000771 -0.020941 0.032431
   vertex -0.000725 -0.028391 0.038227
  endloop
 endfacet
 facet normal 0.0854292 0.612127 0.786131
  outer loop
   vertex -0.000725 -0.028391 0.038227
   vertex -0.000771 -0.020941 0.032431
   vertex -0.00772 -0.022541 0.034432
  endloop
 endfacet
 facet normal 0.783749 0.606878 0.132046
  outer loop
   vertex 0.017004 -0.023963 -0.005333
   vertex 0.015654 -0.026898 0.016169
   vertex 0.017861 -0.03178 0.025507
  endloop
 endfacet
 facet normal 0.783741 0.606887 0.132053
  outer loop
   vertex 0.012097 -0.024951 0.028332
   vertex 0.017861 -0.03178 0.025507
   vertex 0.015654 -0.026898 0.016169
  endloop
 endfacet
 facet normal 0.237393 0.971265 0.0169976
  outer loop
   vertex 0.014997 -0.025327 0.009315
   vertex 0.008001 -0.023806 0.020111
   vertex 0.012097 -0.024951 0.028332
  endloop
 endfacet
 facet normal 0.36373 0.891645 0.269573
  outer loop
   vertex -0.000771 -0.020941 0.032431
   vertex 0.012097 -0.024951 0.028332
   vertex 0.00735 -0.022269 0.025866
  endloop
 endfacet
 facet normal 0.546613 0.822382 -0.157803
  outer loop
   vertex 0.012097 -0.024951 0.028332
   vertex 0.008001 -0.023806 0.020111
   vertex 0.00735 -0.022269 0.025866
  endloop
 endfacet
 facet normal 0.704894 0.703111 0.093591
  outer loop
   vertex 0.012097 -0.024951 0.028332
   vertex 0.015654 -0.026898 0.016169
   vertex 0.014997 -0.025327 0.009315
  endloop
 endfacet
 facet normal 0.789547 0.282083 -0.545018
  outer loop
   vertex 0.007234 -0.023226 -0.019105
   vertex 0.017004 -0.023963 -0.005333
   vertex 0.011616 -0.033646 -0.01815
  endloop
 endfacet
 facet normal 0.656524 0.209685 -0.724575
  outer loop
   vertex 0.001064 -0.02565 -0.025397
   vertex 0.007234 -0.023226 -0.019105
   vertex 0.011616 -0.033646 -0.01815
  endloop
 endfacet
 facet normal 0.132136 0.884273 0.447885
  outer loop
   vertex -0.000781 -0.022569 0.000859
   vertex -0.004017 -0.018622 -0.005979
   vertex -0.012712 -0.01828 -0.004089
  endloop
 endfacet
 facet normal 0.0870074 0.847012 0.524404
  outer loop
   vertex -0.000781 -0.022569 0.000859
   vertex -0.012712 -0.01828 -0.004089
   vertex -0.006783 -0.021303 -0.00019
  endloop
 endfacet
 facet normal 0.0511065 0.960111 0.27491
  outer loop
   vertex -0.000781 -0.022569 0.000859
   vertex 0.010805 -0.021791 -0.004012
   vertex 0.002919 -0.021066 -0.005078
  endloop
 endfacet
 facet normal 0.261374 0.884358 0.386774
  outer loop
   vertex -0.004017 -0.018622 -0.005979
   vertex -0.000781 -0.022569 0.000859
   vertex 0.002919 -0.021066 -0.005078
  endloop
 endfacet
 facet normal -0.0941716 0.916477 0.388846
  outer loop
   vertex -0.011229 -0.017999 0.006176
   vertex -0.010658 -0.024319 0.02121
   vertex -0.003705 -0.023207 0.020273
  endloop
 endfacet
 facet normal 0.0459512 0.9664 -0.252901
  outer loop
   vertex 0.00735 -0.022269 0.025866
   vertex 0.008001 -0.023806 0.020111
   vertex -0.003705 -0.023207 0.020273
  endloop
 endfacet
 facet normal 0.0105713 0.982554 -0.185679
  outer loop
   vertex -0.000771 -0.020941 0.032431
   vertex 0.00735 -0.022269 0.025866
   vertex -0.003705 -0.023207 0.020273
  endloop
 endfacet
 facet normal -0.254808 0.959838 -0.117403
  outer loop
   vertex -0.00772 -0.022541 0.034432
   vertex -0.000771 -0.020941 0.032431
   vertex -0.003705 -0.023207 0.020273
  endloop
 endfacet
 facet normal -0.169591 0.980999 -0.0942337
  outer loop
   vertex -0.010658 -0.024319 0.02121
   vertex -0.00772 -0.022541 0.034432
   vertex -0.003705 -0.023207 0.020273
  endloop
 endfacet
 facet normal -0.201295 0.900232 0.386085
  outer loop
   vertex -0.015875 -0.025531 0.021316
   vertex -0.010658 -0.024319 0.02121
   vertex -0.011229 -0.017999 0.006176
  endloop
 endfacet
 facet normal -0.369862 0.872106 0.320365
  outer loop
   vertex -0.015875 -0.025531 0.021316
   vertex -0.011229 -0.017999 0.006176
   vertex -0.019581 -0.021936 0.007251
  endloop
 endfacet
 facet normal 0.518725 0.851235 -0.0795203
  outer loop
   vertex -0.011984 -0.017938 0.001904
   vertex -0.011229 -0.017999 0.006176
   vertex -0.006783 -0.021303 -0.00019
  endloop
 endfacet
 facet normal -0.415672 0.905402 0.0863913
  outer loop
   vertex -0.019581 -0.021936 0.007251
   vertex -0.011229 -0.017999 0.006176
   vertex -0.011984 -0.017938 0.001904
  endloop
 endfacet
 facet normal 0.508152 0.854153 -0.110471
  outer loop
   vertex -0.012712 -0.01828 -0.004089
   vertex -0.011984 -0.017938 0.001904
   vertex -0.006783 -0.021303 -0.00019
  endloop
 endfacet
 facet normal 0.353084 0.92586 0.134593
  outer loop
   vertex 0.017004 -0.023963 -0.005333
   vertex 0.010805 -0.021791 -0.004012
   vertex 0.014997 -0.025327 0.009315
  endloop
 endfacet
 facet normal 0.0923105 0.995714 -0.00569285
  outer loop
   vertex 0.010805 -0.021791 -0.004012
   vertex 0.00505 -0.021305 -0.012326
   vertex 0.002919 -0.021066 -0.005078
  endloop
 endfacet
 facet normal 0.274382 0.930556 -0.242446
  outer loop
   vertex 0.010805 -0.021791 -0.004012
   vertex 0.017004 -0.023963 -0.005333
   vertex 0.010728 -0.023133 -0.00925
  endloop
 endfacet
 facet normal 0.409728 0.8822 -0.232047
  outer loop
   vertex 0.00505 -0.021305 -0.012326
   vertex 0.010805 -0.021791 -0.004012
   vertex 0.010728 -0.023133 -0.00925
  endloop
 endfacet
 facet normal 0.499011 0.853884 0.147885
  outer loop
   vertex 0.017004 -0.023963 -0.005333
   vertex 0.014997 -0.025327 0.009315
   vertex 0.015654 -0.026898 0.016169
  endloop
 endfacet
 facet normal 0.174224 0.98214 -0.0710379
  outer loop
   vertex 0.017004 -0.023963 -0.005333
   vertex 0.007234 -0.023226 -0.019105
   vertex 0.010728 -0.023133 -0.00925
  endloop
 endfacet
 facet normal -0.430681 0.902387 -0.0145651
  outer loop
   vertex -0.015875 -0.025531 0.021316
   vertex -0.025701 -0.030119 0.027613
   vertex -0.019921 -0.027247 0.034638
  endloop
 endfacet
 facet normal -0.359683 0.93301 0.010942
  outer loop
   vertex -0.015875 -0.025531 0.021316
   vertex -0.019921 -0.027247 0.034638
   vertex -0.00772 -0.022541 0.034432
  endloop
 endfacet
 facet normal -0.227108 0.970574 -0.0800514
  outer loop
   vertex -0.015875 -0.025531 0.021316
   vertex -0.00772 -0.022541 0.034432
   vertex -0.010658 -0.024319 0.02121
  endloop
 endfacet
 facet normal -0.462609 0.886544 0.0056034
  outer loop
   vertex -0.019581 -0.021936 0.007251
   vertex -0.011984 -0.017938 0.001904
   vertex -0.012712 -0.01828 -0.004089
  endloop
 endfacet
 facet normal -0.509883 0.859659 -0.0316996
  outer loop
   vertex -0.019581 -0.021936 0.007251
   vertex -0.012712 -0.01828 -0.004089
   vertex -0.018365 -0.021573 -0.002464
  endloop
 endfacet
 facet normal 0.509883 -0.859659 0.0316996
  outer loop
   vertex -0.018365 -0.021573 -0.002464
   vertex -0.012712 -0.01828 -0.004089
   vertex -0.019581 -0.021936 0.007251
  endloop
 endfacet
 facet normal 0.509883 -0.859659 0.0316996
  outer loop
   vertex -0.012712 -0.01828 -0.004089
   vertex -0.019581 -0.021936 0.007251
   vertex -0.018365 -0.021573 -0.002464
  endloop
 endfacet
 facet normal -0.78831 0.102573 0.606668
  outer loop
   vertex -0.019921 -0.027247 0.034638
   vertex -0.025701 -0.030119 0.027613
   vertex -0.021813 -0.035128 0.033512
  endloop
 endfacet
 facet normal -0.529634 0.627652 -0.570562
  outer loop
   vertex -0.016965 -0.026964 -0.009694
   vertex -0.018365 -0.021573 -0.002464
   vertex -0.012712 -0.01828 -0.004089
  endloop
 endfacet
 facet normal -0.409861 0.872256 0.266803
  outer loop
   vertex -0.016965 -0.026964 -0.009694
   vertex -0.024404 -0.029841 -0.011716
   vertex -0.026769 -0.032244 -0.007493
  endloop
 endfacet
 facet normal -0.245099 0.895254 -0.372085
  outer loop
   vertex -0.01787 -0.029831 -0.015996
   vertex -0.024404 -0.029841 -0.011716
   vertex -0.016965 -0.026964 -0.009694
  endloop
 endfacet
 facet normal -0.416498 0.628172 -0.657213
  outer loop
   vertex -0.016965 -0.026964 -0.009694
   vertex -0.012712 -0.01828 -0.004089
   vertex -0.007328 -0.028057 -0.016846
  endloop
 endfacet
 facet normal -0.183259 0.904472 -0.385159
  outer loop
   vertex -0.01787 -0.029831 -0.015996
   vertex -0.016965 -0.026964 -0.009694
   vertex -0.007328 -0.028057 -0.016846
  endloop
 endfacet
 facet normal -0.197719 0.769225 -0.607618
  outer loop
   vertex -0.004017 -0.018622 -0.005979
   vertex 0.00505 -0.021305 -0.012326
   vertex -0.007328 -0.028057 -0.016846
  endloop
 endfacet
 facet normal -0.107424 0.766708 -0.632945
  outer loop
   vertex -0.012712 -0.01828 -0.004089
   vertex -0.004017 -0.018622 -0.005979
   vertex -0.007328 -0.028057 -0.016846
  endloop
 endfacet
 facet normal -0.321363 0.945678 -0.0491912
  outer loop
   vertex 0.007234 -0.023226 -0.019105
   vertex 0.001064 -0.02565 -0.025397
   vertex -0.007328 -0.028057 -0.016846
  endloop
 endfacet
 facet normal -0.343551 0.868695 -0.356849
  outer loop
   vertex 0.00505 -0.021305 -0.012326
   vertex 0.007234 -0.023226 -0.019105
   vertex -0.007328 -0.028057 -0.016846
  endloop
 endfacet
 facet normal 0.371514 0.917754 -0.140377
  outer loop
   vertex 0.007234 -0.023226 -0.019105
   vertex 0.00505 -0.021305 -0.012326
   vertex 0.010728 -0.023133 -0.00925
  endloop
 endfacet
 facet normal 0.324222 0.9438 0.0642036
  outer loop
   vertex 0.00505 -0.021305 -0.012326
   vertex -0.004017 -0.018622 -0.005979
   vertex 0.002919 -0.021066 -0.005078
  endloop
 endfacet
endsolid
